<?xml version="1.0" encoding="utf-8"?>
<!-- Generator: Adobe Illustrator 24.1.1, SVG Export Plug-In . SVG Version: 6.00 Build 0)  -->
<svg version="1.1" id="Layer_1" xmlns="http://www.w3.org/2000/svg" xmlns:xlink="http://www.w3.org/1999/xlink" x="0px" y="0px"
	 viewBox="0 0 512 512" style="enable-background:new 0 0 512 512;" xml:space="preserve">
<style type="text/css">
	.st0{fill:#444444;}
</style>
<g>
	<path class="st0" d="M256,512C114.8,512,0,397.1,0,256S114.8,0,256,0s256,114.9,256,256C512,397.1,397.2,512,256,512z M256,56.9
		C146.2,56.9,56.9,146.2,56.9,256S146.2,455.1,256,455.1c109.8,0,199.1-89.3,199.1-199.1S365.8,56.9,256,56.9z M300.5,273.8
		c4.9,0,9,2.4,12.5,7.2c3.5,4.8,5.3,10.7,5.3,17.8c0,7.1-1.8,13-5.3,17.8c-3.6,4.8-7.7,7.2-12.5,7.2c-5.1,0-9.5-2.4-13.1-7.2
		c-3.5-4.8-5.3-10.8-5.3-17.8c0-7,1.7-13,5.3-17.8C290.9,276.2,295.4,273.8,300.5,273.8z M363.4,208.7c13.7,14.8,20.6,32.9,20.6,54
		c0,13.7-1.6,26-4.7,37c-3.2,10.9-7.2,19.9-12,26.7c-4.9,6.9-10.7,12.9-17.8,18.1c-7.1,5.3-13.6,9-19.5,11.4
		c-5.9,2.4-12.7,4.3-20.3,5.6c-7.6,1.3-13.3,2.1-17.3,2.2c-3.8,0.2-8,0.3-12.5,0.3c-1,0-4.4,0.1-10,0.3c-5.5,0.2-10.2,0.3-13.9,0.3
		c-3.7,0-8.4-0.1-13.9-0.3c-5.6-0.2-9-0.3-10-0.3c-4.5,0-8.7,0-12.5-0.3c-4-0.2-9.7-0.9-17.3-2.2c-7.7-1.3-14.4-3.1-20.4-5.6
		c-5.9-2.4-12.4-6.2-19.5-11.4c-7.1-5.2-13-11.2-17.8-18.1c-4.8-6.8-8.8-15.8-12-26.7c-3.1-11-4.7-23.3-4.7-37
		c0-21.1,6.9-39.2,20.6-54c-1.5-0.7-1.6-8.1-0.2-22.2c1.2-14.1,4.2-27.1,9.1-39c17.1,1.8,38.2,11.5,63.4,28.9
		c8.5-2.2,20.2-3.4,35.1-3.4c15.6,0,27.3,1.1,35.1,3.4c11.5-7.8,22.5-14.1,33-19c10.7-4.8,18.3-7.6,23.2-8.3l7.2-1.6
		c4.9,11.9,7.9,24.9,9.1,39C365,200.5,364.9,207.9,363.4,208.7L363.4,208.7z M256.6,351.7c30.8,0,54-3.7,69.8-11.1
		c15.7-7.4,23.7-22.7,23.7-45.7c0-13.3-5-24.5-15.1-33.4c-5.2-4.9-11.2-7.8-18.2-8.9c-6.8-1.1-17.3-1.1-31.4,0
		c-14.1,1.1-23.7,1.6-28.9,1.6c-7,0-14.7-0.4-24.2-1.1c-9.5-0.7-17-1.2-22.3-1.4c-5.4-0.2-11.2,0.5-17.5,1.9
		c-6.4,1.5-11.5,4.1-15.6,7.8c-9.6,8.5-14.4,19.7-14.4,33.4c0,23,7.8,38.3,23.4,45.6c15.6,7.4,38.7,11.1,69.5,11.1L256.6,351.7z
		 M212.1,273.8c4.8,0,9,2.4,12.5,7.2c3.5,4.8,5.3,10.7,5.3,17.8c0,7.1-1.8,13-5.3,17.8c-3.5,4.8-7.7,7.2-12.5,7.2
		c-5.2,0-9.6-2.4-13.1-7.2c-3.5-4.8-5.3-10.8-5.3-17.8c0-7,1.8-13,5.3-17.8C202.5,276.2,206.9,273.8,212.1,273.8z"/>
</g>
</svg>
